<?xml version="1.0" encoding="iso-8859-1"?>
<!-- Generator: Adobe Illustrator 19.0.0, SVG Export Plug-In . SVG Version: 6.00 Build 0)  -->
<svg version="1.1" id="Capa_1" xmlns="http://www.w3.org/2000/svg" xmlns:xlink="http://www.w3.org/1999/xlink" x="0px" y="0px"
	 viewBox="0 0 512 512" style="enable-background:new 0 0 512 512;" xml:space="preserve" width="60px" height="60px">
<path style="fill:#607D8B;" d="M288,362.667h-64c-2.831,0.005-5.548-1.115-7.552-3.115L176.917,320H10.667
	C4.776,320,0,315.224,0,309.333s4.776-10.667,10.667-10.667h170.667c2.831-0.005,5.548,1.115,7.552,3.115l39.531,39.552h55.168
	l39.552-39.552c1.999-1.994,4.707-3.114,7.531-3.115h170.667c5.891,0,10.667,4.776,10.667,10.667S507.224,320,501.333,320H335.083
	l-39.552,39.552C293.532,361.546,290.824,362.666,288,362.667z"/>
<path style="fill:#F44336;" d="M32,85.333h448c5.891,0,10.667,4.776,10.667,10.667v170.667c0,5.891-4.776,10.667-10.667,10.667H32
	c-5.891,0-10.667-4.776-10.667-10.667V96C21.333,90.109,26.109,85.333,32,85.333z"/>
<g>
	<path style="fill:#455A64;" d="M96,234.667c-5.891,0-10.667-4.776-10.667-10.667v-85.333C85.333,132.776,90.109,128,96,128
		c5.891,0,10.667,4.776,10.667,10.667V224C106.667,229.891,101.891,234.667,96,234.667z"/>
	<path style="fill:#455A64;" d="M160,234.667c-5.891,0-10.667-4.776-10.667-10.667v-85.333c0-5.891,4.776-10.667,10.667-10.667
		c5.891,0,10.667,4.776,10.667,10.667V224C170.667,229.891,165.891,234.667,160,234.667z"/>
	<path style="fill:#455A64;" d="M224,234.667c-5.891,0-10.667-4.776-10.667-10.667v-85.333c0-5.891,4.776-10.667,10.667-10.667
		c5.891,0,10.667,4.776,10.667,10.667V224C234.667,229.891,229.891,234.667,224,234.667z"/>
	<path style="fill:#455A64;" d="M288,234.667c-5.891,0-10.667-4.776-10.667-10.667v-85.333c0-5.891,4.776-10.667,10.667-10.667
		c5.891,0,10.667,4.776,10.667,10.667V224C298.667,229.891,293.891,234.667,288,234.667z"/>
	<path style="fill:#455A64;" d="M352,234.667c-5.891,0-10.667-4.776-10.667-10.667v-85.333c0-5.891,4.776-10.667,10.667-10.667
		c5.891,0,10.667,4.776,10.667,10.667V224C362.667,229.891,357.891,234.667,352,234.667z"/>
	<path style="fill:#455A64;" d="M416,234.667c-5.891,0-10.667-4.776-10.667-10.667v-85.333c0-5.891,4.776-10.667,10.667-10.667
		c5.891,0,10.667,4.776,10.667,10.667V224C426.667,229.891,421.891,234.667,416,234.667z"/>
	<circle style="fill:#455A64;" cx="42.667" cy="384" r="42.667"/>
	<circle style="fill:#455A64;" cx="149.333" cy="384" r="42.667"/>
	<circle style="fill:#455A64;" cx="362.667" cy="384" r="42.667"/>
	<circle style="fill:#455A64;" cx="469.333" cy="384" r="42.667"/>
</g>
<path d="M288,362.667h-64c-2.831,0.005-5.548-1.115-7.552-3.115L176.917,320H10.667C4.776,320,0,315.224,0,309.333
	s4.776-10.667,10.667-10.667h170.667c2.831-0.005,5.548,1.115,7.552,3.115l39.531,39.552h55.168l39.552-39.552
	c1.999-1.994,4.707-3.114,7.531-3.115h170.667c5.891,0,10.667,4.776,10.667,10.667S507.224,320,501.333,320H335.083l-39.552,39.552
	C293.532,361.546,290.824,362.666,288,362.667z"/>
<path d="M480,277.333H32c-5.891,0-10.667-4.776-10.667-10.667V96c0-5.891,4.776-10.667,10.667-10.667h448
	c5.891,0,10.667,4.776,10.667,10.667v170.667C490.667,272.558,485.891,277.333,480,277.333z M42.667,256h426.667V106.667H42.667V256
	z"/>
<path d="M96,234.667c-5.891,0-10.667-4.776-10.667-10.667v-85.333C85.333,132.776,90.109,128,96,128
	c5.891,0,10.667,4.776,10.667,10.667V224C106.667,229.891,101.891,234.667,96,234.667z"/>
<path d="M160,234.667c-5.891,0-10.667-4.776-10.667-10.667v-85.333c0-5.891,4.776-10.667,10.667-10.667
	c5.891,0,10.667,4.776,10.667,10.667V224C170.667,229.891,165.891,234.667,160,234.667z"/>
<path d="M224,234.667c-5.891,0-10.667-4.776-10.667-10.667v-85.333c0-5.891,4.776-10.667,10.667-10.667
	c5.891,0,10.667,4.776,10.667,10.667V224C234.667,229.891,229.891,234.667,224,234.667z"/>
<path d="M288,234.667c-5.891,0-10.667-4.776-10.667-10.667v-85.333c0-5.891,4.776-10.667,10.667-10.667
	c5.891,0,10.667,4.776,10.667,10.667V224C298.667,229.891,293.891,234.667,288,234.667z"/>
<path d="M352,234.667c-5.891,0-10.667-4.776-10.667-10.667v-85.333c0-5.891,4.776-10.667,10.667-10.667
	c5.891,0,10.667,4.776,10.667,10.667V224C362.667,229.891,357.891,234.667,352,234.667z"/>
<path d="M416,234.667c-5.891,0-10.667-4.776-10.667-10.667v-85.333c0-5.891,4.776-10.667,10.667-10.667
	c5.891,0,10.667,4.776,10.667,10.667V224C426.667,229.891,421.891,234.667,416,234.667z"/>
<path d="M42.667,426.667C19.103,426.667,0,407.564,0,384c0-23.564,19.103-42.667,42.667-42.667S85.333,360.436,85.333,384
	C85.333,407.564,66.231,426.667,42.667,426.667z M42.667,362.667c-11.782,0-21.333,9.551-21.333,21.333
	c0,11.782,9.551,21.333,21.333,21.333S64,395.782,64,384C64,372.218,54.449,362.667,42.667,362.667z"/>
<path d="M149.333,426.667c-23.564,0-42.667-19.103-42.667-42.667c0-23.564,19.103-42.667,42.667-42.667S192,360.436,192,384
	C192,407.564,172.897,426.667,149.333,426.667z M149.333,362.667C137.551,362.667,128,372.218,128,384
	c0,11.782,9.551,21.333,21.333,21.333s21.333-9.551,21.333-21.333C170.667,372.218,161.115,362.667,149.333,362.667z"/>
<path d="M362.667,426.667C339.103,426.667,320,407.564,320,384c0-23.564,19.103-42.667,42.667-42.667s42.667,19.103,42.667,42.667
	C405.333,407.564,386.231,426.667,362.667,426.667z M362.667,362.667c-11.782,0-21.333,9.551-21.333,21.333
	c0,11.782,9.551,21.333,21.333,21.333c11.782,0,21.333-9.551,21.333-21.333C384,372.218,374.449,362.667,362.667,362.667z"/>
<path d="M469.333,426.667c-23.564,0-42.667-19.103-42.667-42.667c0-23.564,19.102-42.667,42.667-42.667S512,360.436,512,384
	C512,407.564,492.898,426.667,469.333,426.667z M469.333,362.667C457.551,362.667,448,372.218,448,384
	c0,11.782,9.551,21.333,21.333,21.333s21.333-9.551,21.333-21.333C490.667,372.218,481.115,362.667,469.333,362.667z"/>
<g>
</g>
<g>
</g>
<g>
</g>
<g>
</g>
<g>
</g>
<g>
</g>
<g>
</g>
<g>
</g>
<g>
</g>
<g>
</g>
<g>
</g>
<g>
</g>
<g>
</g>
<g>
</g>
<g>
</g>
</svg>
