<?xml version="1.0" encoding="utf-8"?>
<svg width="300" height="60" xmlns="http://www.w3.org/2000/svg">
	<g transform="matrix(0.541117,0,0,0.576741,108.48,26.5959)">
		<g transform="matrix(1,0,0,1,-150,-30)">
			<clipPath id="_clip2">
				<rect x="0" y="0" width="300" height="60"/>
            </clipPath>
            <g clip-path="url(#_clip2)">
				<g>
                    <path d="M0,40.8C0.3,39.9 0.6,38.9 0.9,38C2.9,32.8 5.8,28.2 9.8,24.3C10.1,24 10.2,23.8 10.2,23.4C10.3,19.7 10.9,16.1 12.2,12.6C12.3,12.4 12.4,12.1 12.5,11.9C12.5,11.9 12.6,11.9 12.7,11.8C12.6,15 12.8,18.2 13.3,21.4C18.8,17.4 25,15.5 31.7,14.3C31.4,14 31.1,13.9 30.9,13.7C28.9,12.3 26.8,11.1 24.4,10.5C23.3,10.2 22.3,10.1 21.2,10.3C19.4,10.6 17.9,11.5 16.8,12.9C16.2,13.6 15.8,14.3 15.5,15.2C15.4,15.4 15.3,15.6 15.2,15.8C15,15.5 15,15.3 15,15.2C14.9,12.8 15,10.4 15.7,8.1C16.3,6.2 17.3,4.5 19,3.3C20.4,2.2 22.1,1.7 23.9,1.6C26.6,1.4 29.1,2.3 31.4,3.6C33.8,5 35.7,6.8 37.5,8.9C38.8,10.4 40,12.1 41.2,13.8C41.4,14.1 41.6,14.3 42,14.3C46.1,15 49.9,16.3 53.2,18.9C54.7,20.1 56,21.5 57,23.1C59,26.4 57.9,30.2 55.2,32.3C53.7,33.5 51.9,34.2 49.9,34.6C50.1,34.4 50.2,34.2 50.3,34.1C51.7,32.4 51.7,30.5 50.5,28.7C49.7,27.5 48.6,26.7 47.2,26.2C47.3,26.5 47.3,26.7 47.4,26.9C48.2,29.8 48.6,32.7 48.5,35.6C48.4,40.4 47.2,44.9 44.7,49C44.4,49.4 44.1,49.8 43.8,50.2C44,49.3 44.1,48.5 44.3,47.6C44.9,44.3 45,41 44.7,37.7C44.2,33.1 42.9,28.8 40.7,24.7C40.5,24.3 40.2,24.1 39.8,24.1C37,23.7 34.3,23.5 31.5,23.6C25.9,23.8 20.5,24.9 15.3,27.3C15.2,27.4 15,27.5 14.8,27.6C15.5,30.1 16.5,32.6 17.7,35C18.3,34.7 18.9,34.5 19.5,34.3C21.7,33.5 24,32.9 26.4,32.6C29.9,32.2 33.2,32.5 36.5,33.9C38,34.6 39.4,35.5 40.5,36.7C42.4,38.7 41.8,41.8 40.1,43.3C39.1,44.2 37.9,44.8 36.4,45.1C36.5,44.9 36.6,44.8 36.7,44.6C37.3,43.7 37.4,42.8 37,41.9C36.6,41 36,40.4 35.2,39.9C34,39.2 32.7,38.7 31.4,38.5C27.7,37.8 24,38 20.4,39C20.3,39 20.2,39.1 20.1,39.1C20.1,39.2 20.1,39.2 20.2,39.3C22.4,42.6 25,45.4 28.3,47.6C30.1,48.8 32,49.7 34.2,50C37.2,50.5 39.6,49.6 41.5,47.3C42.3,46.4 42.8,45.3 43.2,44.2C43.3,44 43.3,43.9 43.4,43.6C43.4,43.8 43.5,43.8 43.5,43.9C43.5,46.5 43.2,49.1 42.2,51.5C41.3,53.7 39.8,55.5 37.7,56.6C36.1,57.4 34.5,57.7 32.7,57.7C29.7,57.7 27.1,56.7 24.7,55C22.3,53.4 20.4,51.3 18.7,49C17.1,46.9 15.8,44.6 14.7,42.2C14.6,42 14.5,41.8 14.4,41.6C10.1,44.1 6.8,47.5 3.9,51.5C5.7,46.3 8.6,41.8 12.9,38.1C12,35.5 11.3,32.9 10.9,30.1C6.3,33 2.9,36.6 0.1,40.9C0.1,40.8 0,40.8 0,40.8Z" style="fill:white;stroke:white;stroke-width:1px;"/>
					<path d="M131.5,15.5C138.1,29.5 144.6,43.5 151.2,57.5C148.7,57.5 146.4,57.5 143.9,57.5C142.5,54.3 141.1,51.1 139.7,47.9C134.2,47.9 128.7,47.9 123.1,47.9C122.9,48.2 122.8,48.5 122.7,48.8C121.4,51.5 120.2,54.3 118.9,57C118.7,57.4 118.5,57.5 118.1,57.5L111.1,57.5C117.9,43.6 124.7,29.6 131.5,15.5ZM126.1,41.4C129.7,41.4 133.3,41.4 136.9,41.4C135.1,37.6 133.4,33.8 131.6,30C129.7,33.8 127.9,37.6 126.1,41.4Z" style="fill:white;stroke:white;stroke-width:1px;"/>
                    <path d="M86.1,45.8C88.4,45.3 90.6,44.8 92.9,44.3C93,44.9 93,45.5 93.2,46C93.3,46.7 93.5,47.4 93.7,48.2C94.3,50.4 95.9,51.4 98,51.8C99,52 99.9,51.9 100.9,51.7C103.4,51.1 105.2,49.1 105.6,46.6C105.7,45.6 105.7,44.7 105.5,43.7C105.2,42.5 104.6,41.6 103.6,40.9C102.7,40.2 101.6,39.7 100.6,39.3C98.8,38.5 97,37.8 95.2,37C93.2,36.1 91.5,34.7 90.1,33C88.4,30.9 87.7,28.4 88.1,25.7C88.7,21.6 91.2,18.9 94.9,17.3C98.3,15.9 101.8,15.9 105.2,17.3C107.4,18.2 109,19.9 110.4,21.7C110.9,22.3 111.3,22.9 111.7,23.6C109.9,24.7 108.1,25.7 106.3,26.8C106.2,26.6 106.1,26.4 106,26.2C105.7,25.7 105.4,25.2 105.1,24.7C104.4,23.5 103.3,23 102,22.7C101,22.5 99.9,22.5 98.9,22.8C97.8,23.1 96.9,23.6 96.2,24.4C94.9,25.8 94.7,28 95.8,29.4C96,29.7 96.3,30 96.6,30.2C97.3,30.6 98,31.1 98.8,31.4C100.4,32.1 102,32.7 103.6,33.4C105.8,34.3 107.8,35.6 109.4,37.3C111.2,39.1 112.3,41.3 112.5,43.8C112.8,46.3 112.5,48.7 111.4,51C109.4,55 106.2,57.4 101.8,58.1C99.3,58.5 96.9,58.3 94.5,57.4C90.9,56 88.5,53.3 87.1,49.7C86.6,48.5 86.2,47 86.1,45.8Z" style="fill:white;stroke:white;stroke-width:1px;"/>
                    <path d="M69.3,57.6C67,57.6 64.8,57.6 62.5,57.6C62.5,57.6 62.4,57.6 62.4,57.5L62.4,57.4C62.4,57.3 62.4,57.2 62.4,57.2C62.4,43.8 62.4,30.4 62.4,16.9C62.6,16.9 62.7,16.8 62.9,16.8C65.7,16.8 68.6,16.8 71.4,16.8C73.3,16.8 75.3,17 77.2,17.5C78.4,17.8 79.5,18.4 80.5,19.1C82.9,21 84.7,23.3 85.3,26.4C85.8,28.8 85.7,31.1 85,33.4C83.9,36.7 81.6,38.9 78.4,40.2C76.5,41 74.5,41.3 72.5,41.3C71.5,41.3 70.4,41.3 69.3,41.3L69.3,57.6ZM69.3,23.3C69.3,27.2 69.3,31.1 69.3,35C70.7,35 72,35 73.3,34.8C74.2,34.7 75.1,34.4 76,34C77.4,33.3 78.3,32.3 78.7,30.8C79,29.7 79,28.5 78.8,27.4C78.5,25.8 77.6,24.6 76,24.1C75.7,24 75.4,23.9 75.1,23.8C73.3,23.2 71.4,23.3 69.3,23.3Z" style="fill:white;stroke:white;stroke-width:1px;"/>
				</g>
			</g>
		</g>
	</g>
</svg>