<?xml version="1.0" encoding="iso-8859-1"?>
<!-- Generator: Adobe Illustrator 19.0.0, SVG Export Plug-In . SVG Version: 6.00 Build 0)  -->
<svg version="1.1" id="Capa_1" xmlns="http://www.w3.org/2000/svg" xmlns:xlink="http://www.w3.org/1999/xlink" x="0px" y="0px"
	 viewBox="0 0 512 512" style="enable-background:new 0 0 512 512;" xml:space="preserve" width="60px" height="60px">
<g>
	<g>
		<g>
			<path d="M269.806,453.926c-1.824-3.914-5.676-6.35-9.992-6.263c-55.025,1.104-110.422-21.03-149.753-66.885
				c-59.309-69.146-61.328-173.095-4.419-244.228c72.663-90.824,206.165-96.272,286.122-16.314
				c38.371,38.371,56.88,89.064,55.9,139.454c-0.085,4.315,2.353,8.164,6.262,9.993c13.802,6.457,26.578,15.065,37.637,25.879
				c2.875,2.833,7.104,3.792,10.958,2.448c3.813-1.323,6.563-4.698,7.083-8.708c2.081-16.22,2.762-29.023,2.216-41.671
				C506.2,117.322,403.3,9.09,273.148,0.563C113.313-9.909-18.124,127.25,2.052,288.783
				c15.5,124.105,121.628,218.576,246.617,223.085c12.458,0.449,25.007-0.228,40.643-2.273c4.021-0.521,7.375-3.26,8.708-7.083
				c1.313-3.813,0.375-8.052-2.458-10.948C284.713,480.46,276.225,467.702,269.806,453.926z"/>
			<path d="M397.104,236.698c-3.938,2.469-5.833,7.208-4.667,11.708c1.167,4.5,5.125,7.74,9.771,7.99
				c3.945,0.211,7.862,0.6,11.742,1.154c6.759,0.961,12.605-4.482,12.223-11.298c-2.267-40.4-18.695-80.133-49.493-110.931
				c-68.484-68.484-181.176-66.486-247.078,5.999c-59.354,65.28-58.208,168.008,2.488,232.042
				c31.355,33.081,72.689,50.609,114.704,52.833c6.643,0.352,11.677-5.52,10.723-12.104c-0.01-0.07-0.02-0.142-0.03-0.214
				c-0.715-5.104-5.169-8.944-10.315-9.251c-13.586-0.81-25.487-2.867-36.355-6.302c-4.663-1.474-8.022-6.354-7.673-11.232
				C205.929,348.201,228.123,320,256,320c3.521,0,7.167,0.604,11.5,1.885c1,0.302,2.021,0.448,3.042,0.448
				c3.5,0,6.854-1.729,8.875-4.75c0.875-1.313,1.833-2.552,2.771-3.802c0.021-0.021,1.271-1.677,1.292-1.698
				c2.854-3.802,2.833-9.031-0.021-12.813c-2.854-3.792-7.854-5.229-12.333-3.542c-5.083,1.948-10.188,2.938-15.125,2.938
				c-23.521,0-42.667-19.135-42.667-42.667c0-22.146,17.417-40.729,39.667-42.323c1.063-0.073,4.938-0.073,6,0
				c22.25,1.594,39.667,20.177,39.667,42.323c0,4.938-0.979,10.031-2.917,15.125c-1.688,4.438-0.25,9.448,3.521,12.313
				c3.771,2.865,9,2.896,12.813,0.052c11.042-8.219,23.167-14.708,36.042-19.313c4.521-1.604,7.396-6.031,7.063-10.802
				c-0.354-4.781-3.833-8.75-8.542-9.698c-10.021-2.021-18.146-5.927-23.521-11.302c-18.083-18.073-10.542-49.208,20.167-83.281
				c1.917-2.125,4.646-3.406,7.938-3.531c2.729,0,5.333,1.042,7.333,2.927c22.146,20.948,37.167,47.604,43.438,77.125
				C402.937,229.906,401,234.261,397.104,236.698z M168.708,364.584c-1.917,2.125-4.646,3.406-7.5,3.521l-0.438,0.01
				c-2.729,0-5.333-1.042-7.333-2.927C131.291,344.24,116.27,317.573,110,288.052c-1.021-4.677,1.271-9.49,5.521-11.688
				c9.979-5.156,22.396-8,34.938-8c16.438,0,30.083,4.594,38.417,12.927C206.937,299.354,199.395,330.49,168.708,364.584z
				 M188.875,232.386c-8.333,8.323-21.979,12.917-38.417,12.917c-12.542,0-24.958-2.844-34.938-8
				c-4.25-2.198-6.542-7.01-5.521-11.688c0-0.01,0-0.01,0-0.01c6.271-29.51,21.292-56.167,43.438-77.115
				c1.979-1.875,4.563-2.917,7.708-2.917c0.021,0,0.042,0,0.063,0c2.854,0.115,5.583,1.396,7.5,3.521
				C199.416,183.167,206.958,214.302,188.875,232.386z M308.875,125.5c-2.583,37.417-23.104,64.927-49.917,66.906
				c-1.042,0.073-4.875,0.073-5.917,0c-26.813-1.979-47.333-29.49-49.917-66.885c-0.333-4.927,2.708-9.417,7.396-10.906
				c14.771-4.719,30.083-7.115,45.479-7.115c15.396,0,30.708,2.396,45.479,7.104C306.166,116.104,309.208,120.594,308.875,125.5z"/>
			<path d="M394.666,373.334c-1.842,0-3.491,0.611-5.198,1.052l-19.219-19.219c-4.167-4.167-10.917-4.167-15.083,0
				c-4.167,4.167-4.167,10.917,0,15.083l19.219,19.219c-0.441,1.707-1.052,3.355-1.052,5.198c0,11.76,9.563,21.333,21.333,21.333
				c11.771,0,21.333-9.573,21.333-21.333C416,382.906,406.437,373.334,394.666,373.334z"/>
			<path d="M394.666,277.334c-64.688,0-117.333,52.635-117.333,117.333c0,16.156,3.333,31.948,9.896,46.948
				C305.937,484.375,348.125,512,394.666,512c46.542,0,88.729-27.625,107.438-70.385c6.563-15,9.896-30.792,9.896-46.948
				C512,329.969,459.354,277.334,394.666,277.334z M480,405.334h9.555c-0.828,7.257-2.441,14.371-4.938,21.333H304.716
				c-2.496-6.962-4.109-14.077-4.938-21.333h9.555c5.896,0,10.667-4.771,10.667-10.667c0-5.896-4.771-10.667-10.667-10.667h-9.589
				c2.073-18.423,9.233-35.15,20.25-48.922l3.13,3.13c2.083,2.083,4.813,3.125,7.542,3.125c2.729,0,5.458-1.042,7.542-3.125
				c4.167-4.167,4.167-10.917,0-15.083l-3.13-3.13c13.772-11.017,30.499-18.177,48.922-20.25v9.589
				c0,5.896,4.771,10.667,10.667,10.667c5.896,0,10.667-4.771,10.667-10.667v-9.589c18.423,2.073,35.15,9.233,48.922,20.25
				l-3.13,3.13c-4.167,4.167-4.167,10.917,0,15.083c2.083,2.083,4.813,3.125,7.542,3.125c2.729,0,5.458-1.042,7.542-3.125l3.13-3.13
				c11.017,13.772,18.177,30.499,20.25,48.922H480c-5.896,0-10.667,4.771-10.667,10.667
				C469.333,400.563,474.104,405.334,480,405.334z"/>
		</g>
	</g>
</g>
<g>
</g>
<g>
</g>
<g>
</g>
<g>
</g>
<g>
</g>
<g>
</g>
<g>
</g>
<g>
</g>
<g>
</g>
<g>
</g>
<g>
</g>
<g>
</g>
<g>
</g>
<g>
</g>
<g>
</g>
</svg>
